<?xml version="1.0" standalone="no"?>
<!DOCTYPE svg PUBLIC "-//W3C//DTD SVG 20010904//EN"
 "http://www.w3.org/TR/2001/REC-SVG-20010904/DTD/svg10.dtd">
<svg version="1.0" xmlns="http://www.w3.org/2000/svg"
 width="260.000000pt" height="260.000000pt" viewBox="0 0 260.000000 260.000000"
 preserveAspectRatio="xMidYMid meet">
<metadata>
Created by potrace 1.14, written by Peter Selinger 2001-2017
</metadata>
<g transform="translate(0.000000,260.000000) scale(0.100000,-0.100000)"
fill="#000000" stroke="none">
<path d="M0 2277 l0 -154 272 -6 c149 -4 393 -7 542 -7 516 0 721 -27 1061
-138 117 -38 119 -39 80 -46 -370 -57 -1314 -55 -1829 5 -141 16 -126 33 -126
-150 l0 -158 53 -6 c120 -14 458 -38 677 -47 461 -19 675 -12 1275 41 187 16
397 32 468 36 l127 6 0 243 0 242 -62 7 c-164 17 -347 60 -593 139 -392 126
-580 145 -1432 146 l-513 0 0 -153z"/>
<path d="M1820 1293 c-264 -4 -1459 -32 -1648 -39 l-172 -6 0 -159 0 -158 148
5 c381 13 1402 35 1900 41 l552 6 0 159 0 158 -307 -2 c-170 -1 -382 -4 -473
-5z"/>
<path d="M2300 629 c-568 -27 -1857 -69 -2122 -69 l-178 0 0 -160 0 -160 123
0 c251 0 1595 43 2172 70 116 6 231 10 258 10 l47 0 0 160 0 160 -67 -2 c-38
0 -142 -5 -233 -9z"/>
</g>
</svg>
